<?xml version="1.0" standalone="no"?>
<!DOCTYPE svg PUBLIC "-//W3C//DTD SVG 20010904//EN"
 "http://www.w3.org/TR/2001/REC-SVG-20010904/DTD/svg10.dtd">
<svg version="1.0" xmlns="http://www.w3.org/2000/svg"
 width="800.000000pt" height="800.000000pt" viewBox="0 0 800.000000 800.000000"
 preserveAspectRatio="xMidYMid meet">

<g transform="translate(0.000000,800.000000) scale(0.100000,-0.100000)"
fill="#000000" stroke="none">
<path d="M3955 7074 c-28 -30 -38 -70 -36 -151 0 -32 2 -282 3 -555 3 -487 3
-497 24 -525 29 -38 88 -40 115 -3 17 23 18 64 20 595 3 537 2 572 -16 608
-16 34 -47 57 -76 57 -6 0 -21 -12 -34 -26z"/>
<path d="M3665 6284 c-11 -3 -56 -12 -100 -20 -354 -66 -718 -236 -1010 -471
-393 -317 -664 -747 -795 -1262 -42 -162 -38 -201 17 -222 62 -23 104 25 122
141 17 106 67 268 120 395 275 649 871 1129 1575 1269 142 28 186 48 200 89 9
23 6 31 -15 53 -25 24 -75 37 -114 28z"/>
<path d="M4312 6247 c-27 -28 -29 -78 -4 -100 10 -9 49 -24 88 -33 195 -48
261 -66 351 -100 388 -144 739 -405 986 -733 250 -331 385 -693 422 -1128 l6
-71 -163 -4 c-222 -4 -262 -26 -207 -114 l21 -34 607 0 c600 0 609 0 635 21
33 26 36 79 6 109 -19 19 -33 20 -384 20 l-364 0 -6 108 c-27 422 -173 810
-436 1160 -102 137 -278 320 -404 422 -253 204 -554 361 -859 449 -203 58
-262 64 -295 28z"/>
<path d="M3795 5466 c-379 -74 -658 -228 -895 -493 -330 -370 -441 -918 -284
-1413 160 -508 594 -889 1134 -995 143 -28 344 -31 486 -7 412 71 755 291 987
635 183 272 268 603 237 922 -65 660 -539 1200 -1175 1337 -118 25 -390 33
-490 14z m467 -166 c255 -52 470 -170 658 -359 380 -383 493 -971 282 -1460
-41 -94 -113 -221 -156 -274 l-23 -29 -23 64 c-61 166 -135 269 -242 338 -58
38 -117 64 -268 121 -100 38 -152 83 -170 148 l-11 42 71 95 c103 136 123 185
128 314 4 111 -14 243 -45 330 -51 140 -178 239 -354 276 -125 27 -275 0 -380
-67 -63 -40 -140 -123 -168 -181 -32 -66 -51 -192 -52 -333 -1 -100 2 -129 21
-177 23 -63 80 -151 135 -212 40 -43 39 -62 -2 -134 -31 -55 -77 -85 -196
-127 -280 -100 -370 -190 -478 -474 -9 -22 -14 -17 -65 65 -79 126 -127 224
-162 334 -50 160 -57 202 -57 395 0 197 12 277 65 437 127 379 419 691 767
817 218 80 490 99 725 51z m-86 -573 c134 -69 201 -227 183 -432 -8 -92 -40
-156 -110 -226 -77 -77 -207 -143 -263 -134 -109 17 -248 121 -301 225 -36 69
-43 170 -22 290 30 173 103 264 242 301 17 4 73 7 125 5 80 -2 103 -6 146 -29z
m-182 -937 c34 0 86 7 116 15 30 8 55 13 55 12 1 -1 7 -20 13 -43 15 -50 77
-124 135 -158 24 -13 98 -47 164 -75 252 -103 336 -191 403 -420 l21 -73 -23
-25 c-37 -40 -130 -110 -213 -158 -41 -25 -77 -45 -79 -45 -2 0 -4 44 -3 98 1
75 -2 104 -16 129 -28 53 -85 58 -121 10 -19 -26 -21 -42 -21 -163 l0 -134
-50 -14 c-142 -42 -202 -50 -355 -50 -162 0 -261 12 -370 44 l-66 20 1 139 c0
139 0 141 -26 167 -33 32 -73 34 -102 5 -19 -19 -22 -35 -25 -135 l-4 -114
-112 76 c-61 42 -135 93 -163 114 l-53 38 34 93 c85 235 143 292 419 406 126
52 203 103 238 160 16 25 29 48 29 52 0 4 4 19 9 33 10 24 10 24 57 10 26 -8
75 -14 108 -14z"/>
<path d="M916 4059 c-30 -23 -33 -56 -11 -99 l16 -30 613 0 614 0 26 31 c38
45 33 80 -15 104 -24 13 -120 15 -622 15 -586 0 -595 0 -621 -21z"/>
<path d="M1751 3684 c-28 -36 -27 -73 9 -213 91 -362 251 -682 476 -951 77
-93 257 -269 344 -337 163 -127 407 -263 590 -328 134 -48 323 -96 402 -102
84 -6 102 1 119 44 23 61 -34 97 -215 133 -526 106 -1041 482 -1333 975 -117
196 -198 405 -233 596 -24 134 -40 173 -79 193 -42 22 -56 20 -80 -10z"/>
<path d="M6153 3686 c-31 -26 -47 -69 -58 -151 -10 -76 -43 -187 -91 -313
-191 -495 -540 -881 -1009 -1115 -181 -90 -400 -165 -585 -201 -107 -21 -155
-41 -169 -72 -14 -31 0 -68 34 -90 24 -16 36 -16 115 -6 359 48 766 234 1068
487 388 324 654 742 778 1222 43 163 46 219 14 245 -30 25 -63 23 -97 -6z"/>
<path d="M3944 2189 c-18 -20 -19 -45 -19 -631 l0 -610 29 -24 c51 -45 107
-15 125 67 5 25 7 1023 2 1152 -1 10 -12 29 -26 42 -31 32 -84 34 -111 4z"/>
</g>
</svg>
