<?xml version="1.0" standalone="no"?>
<!DOCTYPE svg PUBLIC "-//W3C//DTD SVG 20010904//EN"
 "http://www.w3.org/TR/2001/REC-SVG-20010904/DTD/svg10.dtd">
<svg version="1.0" xmlns="http://www.w3.org/2000/svg"
 width="225.000000pt" height="225.000000pt" viewBox="0 0 225.000000 225.000000"
 preserveAspectRatio="xMidYMid meet">

<g transform="translate(0.000000,225.000000) scale(0.100000,-0.100000)"
fill="#000000" stroke="none">
<path d="M1206 2234 c-14 -14 -16 -74 -16 -513 0 -470 1 -499 18 -514 17 -15
67 -17 515 -17 552 0 527 -3 527 68 0 66 -29 226 -53 297 -53 154 -131 280
-246 396 -155 155 -345 251 -561 284 -122 19 -165 19 -184 -1z m274 -104 c108
-30 243 -100 335 -174 185 -147 318 -387 341 -613 l7 -63 -442 0 -441 0 0 441
0 442 63 -7 c35 -3 96 -15 137 -26z"/>
<path d="M1469 1832 c-24 -21 -32 -38 -36 -72 -8 -81 49 -138 125 -126 18 3
32 2 30 -3 -78 -185 -80 -203 -25 -209 21 -3 30 4 46 35 13 24 20 31 21 20 0
-10 13 -32 29 -48 55 -55 146 -31 171 45 27 84 -39 169 -120 152 -17 -3 -30
-4 -30 -2 0 3 16 42 35 87 41 97 43 114 14 129 -29 16 -45 7 -67 -36 l-19 -36
-12 30 c-28 66 -107 83 -162 34z m88 -96 c-10 -25 -37 -19 -37 7 0 13 3 27 7
31 11 11 36 -21 30 -38z m188 -226 c0 -27 -22 -39 -31 -16 -8 22 3 49 19 43 6
-2 12 -14 12 -27z"/>
<path d="M889 2020 c-249 -29 -502 -171 -661 -369 -327 -407 -296 -984 71
-1352 368 -367 945 -397 1352 -71 213 170 351 434 374 713 5 73 4 89 -10 103
-15 14 -63 16 -486 16 l-469 0 0 469 c0 524 3 502 -68 500 -20 -1 -67 -5 -103
-9z m81 -532 l0 -453 -322 -322 -321 -321 -37 44 c-86 105 -155 255 -185 403
-23 113 -16 314 14 419 94 323 347 573 660 652 88 22 114 27 159 29 l32 1 0
-452z m966 -579 c-42 -368 -314 -686 -676 -790 -108 -30 -308 -37 -421 -14
-148 30 -288 94 -403 185 l-45 35 322 323 322 322 454 0 454 0 -7 -61z"/>
<path d="M492 1458 c-7 -7 -12 -17 -12 -22 -1 -6 -15 -20 -33 -31 -18 -11 -41
-38 -51 -59 -17 -36 -18 -43 -5 -80 9 -28 26 -49 52 -65 35 -23 37 -27 37 -78
0 -57 -4 -62 -31 -37 -22 20 -64 12 -73 -13 -9 -23 22 -64 63 -85 18 -9 42
-26 52 -37 26 -27 40 -26 73 4 15 14 33 25 40 25 8 0 28 16 45 35 59 67 35
166 -50 211 -26 13 -29 20 -29 61 0 37 3 44 12 35 27 -27 78 -7 78 29 0 20
-54 69 -76 69 -8 0 -14 4 -14 9 0 16 -30 41 -49 41 -9 0 -22 -5 -29 -12z m-15
-170 c-3 -7 -5 -2 -5 12 0 14 2 19 5 13 2 -7 2 -19 0 -25z m123 -188 c0 -10
-7 -23 -15 -30 -13 -11 -15 -7 -15 30 0 37 2 41 15 30 8 -7 15 -20 15 -30z"/>
<path d="M972 738 c-7 -7 -12 -19 -12 -28 0 -36 20 -40 196 -40 185 0 199 4
192 52 -3 23 -4 23 -183 26 -132 2 -184 -1 -193 -10z"/>
<path d="M842 538 c-16 -16 -15 -43 2 -57 9 -8 103 -11 322 -9 l309 3 0 35 0
35 -310 3 c-233 2 -314 -1 -323 -10z"/>
<path d="M972 338 c-7 -7 -12 -20 -12 -29 0 -36 23 -40 206 -37 178 3 179 3
182 26 7 48 -7 52 -192 52 -120 0 -176 -4 -184 -12z"/>
</g>
</svg>
