<?xml version="1.0" standalone="no"?>
<!DOCTYPE svg PUBLIC "-//W3C//DTD SVG 20010904//EN"
 "http://www.w3.org/TR/2001/REC-SVG-20010904/DTD/svg10.dtd">
<svg version="1.0" xmlns="http://www.w3.org/2000/svg"
 width="600.000000pt" height="600.000000pt" viewBox="0 0 600.000000 600.000000"
 preserveAspectRatio="xMidYMid meet">

<g transform="translate(0.000000,600.000000) scale(0.100000,-0.100000)"
fill="#000000" stroke="none">
<path d="M1245 5121 c-157 -45 -292 -157 -362 -302 -23 -46 -46 -108 -52 -137
-15 -75 -15 -3310 0 -3384 42 -205 219 -389 425 -443 51 -13 208 -15 1204 -15
1272 0 1198 -4 1334 68 93 48 190 145 238 237 60 116 68 163 68 422 l0 230 53
36 c72 50 178 155 232 232 226 317 237 768 27 1096 -61 94 -167 207 -249 266
l-63 45 0 297 0 296 -538 538 -537 537 -860 -1 c-784 0 -865 -2 -920 -18z
m1647 -656 l3 -475 28 -27 27 -28 475 -3 475 -3 0 -180 0 -181 -27 7 c-168 43
-358 51 -488 22 -414 -93 -709 -405 -775 -820 -17 -103 -8 -288 19 -392 54
-205 189 -407 361 -537 86 -66 244 -141 355 -170 75 -19 115 -23 240 -22 142
0 179 5 298 40 17 5 18 -5 15 -188 -3 -184 -4 -196 -29 -248 -59 -123 -167
-202 -306 -221 -43 -6 -489 -9 -1154 -7 l-1084 3 -58 23 c-112 46 -201 139
-232 246 -13 43 -15 272 -15 1688 0 1596 0 1640 19 1694 27 75 77 142 141 187
98 68 62 66 927 66 l782 1 3 -475z m538 -10 l345 -345 -350 2 -350 3 -3 343
c-1 188 1 342 5 342 5 0 163 -155 353 -345z m292 -1049 c175 -35 293 -98 419
-226 97 -99 162 -210 201 -346 29 -103 31 -284 4 -389 -77 -293 -302 -512
-596 -580 -82 -19 -244 -19 -332 0 -363 76 -618 395 -619 770 0 390 277 712
671 778 57 10 183 6 252 -7z"/>
<path d="M1392 4070 c-12 -11 -24 -31 -28 -44 -7 -28 18 -81 41 -90 28 -10
995 -7 1015 4 25 13 41 65 30 94 -21 57 -12 56 -545 56 -480 0 -492 0 -513
-20z"/>
<path d="M1397 3490 c-13 -11 -28 -31 -31 -45 -7 -29 15 -79 39 -89 9 -3 293
-6 632 -6 l616 -1 23 22 c33 31 32 82 -1 114 l-24 25 -614 0 c-598 0 -615 -1
-640 -20z"/>
<path d="M1394 2906 c-36 -30 -39 -86 -6 -119 l23 -22 488 0 489 0 26 24 c28
27 34 74 13 102 -29 38 -44 39 -531 39 l-475 0 -27 -24z"/>
<path d="M1410 2337 c-54 -28 -61 -99 -13 -137 25 -19 42 -20 520 -20 l495 0
29 29 c36 36 37 70 5 108 l-24 28 -494 3 c-385 1 -498 -1 -518 -11z"/>
<path d="M1391 1743 c-11 -10 -24 -32 -27 -50 -5 -27 -1 -37 24 -63 l30 -30
707 0 706 0 24 25 c31 30 32 73 4 109 l-20 26 -714 0 c-664 0 -714 -1 -734
-17z"/>
<path d="M3430 3214 c-123 -32 -260 -123 -260 -172 0 -30 35 -62 67 -62 14 0
40 11 57 24 115 87 270 117 411 81 164 -43 305 -195 336 -363 8 -38 19 -64 36
-79 30 -28 43 -29 77 -2 30 24 33 49 11 134 -54 213 -224 386 -431 439 -77 20
-229 20 -304 0z"/>
<path d="M4313 1902 c-57 -58 -103 -106 -103 -108 0 -1 46 -48 101 -104 l102
-102 106 106 106 106 -105 103 -105 104 -102 -105z"/>
<path d="M4547 1662 c-59 -59 -107 -114 -107 -122 0 -8 5 -33 11 -55 9 -34 65
-95 352 -384 344 -345 386 -380 451 -381 81 0 182 67 217 145 22 48 24 123 5
168 -18 41 -692 712 -729 726 -69 26 -85 18 -200 -97z"/>
</g>
</svg>
