<?xml version="1.0" standalone="no"?>
<!DOCTYPE svg PUBLIC "-//W3C//DTD SVG 20010904//EN"
 "http://www.w3.org/TR/2001/REC-SVG-20010904/DTD/svg10.dtd">
<svg version="1.0" xmlns="http://www.w3.org/2000/svg"
 width="800.000000pt" height="800.000000pt" viewBox="0 0 800.000000 800.000000"
 preserveAspectRatio="xMidYMid meet">

<g transform="translate(0.000000,800.000000) scale(0.100000,-0.100000)"
fill="#000000" stroke="none">
<path d="M3820 7407 l0 -403 -122 -12 c-890 -85 -1700 -575 -2206 -1332 -266
-399 -441 -885 -483 -1347 l-13 -133 -403 0 -403 0 0 -180 0 -180 405 0 405 0
0 -39 c0 -22 7 -95 16 -163 44 -346 160 -714 321 -1018 475 -896 1365 -1496
2361 -1592 l122 -12 0 -403 0 -403 180 0 180 0 0 403 0 403 123 12 c1060 102
2001 781 2443 1763 74 164 155 411 193 586 29 134 61 358 61 430 l0 33 405 0
405 0 0 180 0 180 -405 0 -405 0 0 38 c0 72 -31 288 -61 426 -222 1013 -957
1844 -1937 2192 -227 81 -514 144 -730 160 l-92 7 0 403 0 404 -180 0 -180 0
0 -403z m2 -974 l3 -218 175 0 175 0 3 218 2 218 63 -6 c879 -90 1627 -574
2066 -1337 183 -319 287 -648 337 -1070 l6 -58 -216 0 -216 0 0 -180 0 -180
216 0 216 0 -6 -57 c-19 -156 -40 -279 -67 -391 -139 -570 -466 -1081 -928
-1449 l-66 -53 -5 653 c-6 642 -6 653 -28 727 -50 163 -155 323 -275 420 -155
125 -322 180 -552 180 l-111 0 -302 -165 c-166 -91 -306 -165 -312 -165 -6 0
-104 51 -218 114 -114 62 -252 137 -306 166 l-99 53 -146 -6 c-80 -3 -173 -13
-206 -22 -86 -22 -230 -96 -302 -155 -121 -98 -225 -258 -275 -420 -22 -74
-22 -85 -28 -728 l-5 -652 -90 72 c-186 150 -396 381 -533 586 -247 369 -380
745 -438 1235 l-6 57 216 0 216 0 0 180 0 180 -215 0 c-169 0 -215 3 -215 13
0 39 35 268 56 369 203 965 964 1757 1927 2007 127 33 350 71 464 79 l23 2 2
-217z"/>
<path d="M3825 5753 c-294 -63 -533 -285 -627 -583 -20 -66 -23 -95 -23 -235
0 -154 2 -163 33 -254 44 -126 100 -219 190 -313 177 -185 375 -264 637 -255
112 3 143 8 220 35 142 48 218 95 326 202 130 129 200 254 236 424 22 102 13
307 -17 401 -95 298 -335 518 -632 579 -95 20 -250 19 -343 -1z"/>
</g>
</svg>
